<svg xmlns="http://www.w3.org/2000/svg" width="330.721" height="330.107"><path d="M165.36 0c91.117 0 165.36 74.243 165.36 165.36 0 90.81-74.243 164.747-165.36 164.747v-62.585c26.078 0 52.462-10.124 72.403-30.066 39.576-39.882 39.576-104.615 0-144.498-19.941-19.942-46.325-29.759-72.403-29.759zm0 0v63.199c-26.077 0-52.46 9.817-72.402 29.759-39.576 39.882-39.576 104.615 0 144.498 19.941 19.942 46.325 30.066 72.402 30.066v62.585C74.243 330.107 0 256.17 0 165.36 0 74.243 74.243 0 165.36 0" style="fill:#004098;stroke-width:0"/><path d="M142.965 136.522c34.667-34.974 76.084-50.314 92.037-34.667 8.59 8.896 7.976 24.85 0 43.564h-7.67c10.124-18.408 12.578-34.054 5.522-41.11-12.578-12.578-50.313 4.602-83.754 38.042l-.613.614c-2.761-1.534-5.522-2.762-8.59-3.375a14.5 14.5 0 0 1 3.068-3.068M102.16 213.22v-4.602c.614-8.59 3.682-19.021 9.204-29.759 1.227 2.148 3.068 4.295 4.909 5.83-10.124 18.714-12.885 34.36-5.522 41.723 12.578 12.578 50.006-4.909 83.753-38.35.92-.92 1.841-2.147 2.762-3.067h11.658c-2.455 3.068-5.523 6.136-8.284 9.204-34.974 34.667-76.39 50.313-92.037 34.36-3.988-3.988-5.829-9.203-6.443-15.34" style="fill:#004098;stroke-width:0"/><path d="M134.068 142.044c12.578 0 23.009 10.431 23.009 23.316 0 8.284-4.295 15.647-11.044 19.635.92.92 1.84 2.147 3.067 3.068 7.057 7.056 14.113 13.192 21.476 18.714-2.454 1.84-4.909 3.682-7.056 5.216-7.057-5.216-13.806-11.045-20.555-17.794-2.148-2.148-3.989-3.989-5.83-6.136-.92.307-2.147.307-3.067.307-12.886 0-23.316-10.431-23.316-23.01 0-3.681.92-7.056 2.454-10.124-6.75-12.578-10.738-24.543-11.045-34.36v-2.761c.307-6.75 2.455-12.272 6.443-16.26 11.351-11.352 35.895-6.443 61.665 10.124-2.147 1.534-4.602 3.068-6.75 4.602-23.316-15.34-44.177-21.169-52.768-12.272-7.67 7.363-4.295 24.543 7.363 44.178 3.989-3.988 9.818-6.443 15.954-6.443Zm46.018 71.79c23.316 15.646 44.178 21.168 52.768 12.578 7.057-7.363 4.602-23.01-5.522-41.417h7.67c7.977 18.714 8.59 34.974 0 43.564-11.351 11.352-35.894 6.75-61.972-9.817 2.455-1.534 4.602-3.375 7.057-4.909Zm0-95.413a217 217 0 0 1 20.555 18.101c2.762 2.761 5.83 5.829 8.284 8.897h-11.658c-.92-.92-1.841-1.84-2.761-3.068-7.057-7.056-14.42-13.192-21.476-18.714 2.455-1.841 4.602-3.682 7.056-5.216" style="fill:#f08300;stroke-width:0"/><path d="M96.946 150.328h9.204v17.487c0 1.84-.307 3.374-.92 4.908-.308 1.534-1.228 2.761-2.455 3.989s-2.454 1.84-3.682 2.454c-1.84.614-3.681.92-6.135.92-1.534 0-3.068 0-4.909-.306-1.534-.307-3.068-.614-3.988-1.228-1.228-.613-2.148-1.227-3.068-2.454-1.227-1.227-1.84-2.147-2.148-3.375-.613-1.84-.613-3.374-.613-4.908v-17.487h8.897v17.793c0 1.841.306 3.068 1.227 3.682.92.92 2.147 1.534 3.681 1.534s2.761-.614 3.682-1.227c.92-.92 1.227-2.148 1.227-3.989z" style="fill:#004098;stroke-width:0"/><path d="m141.737 170.269 4.91.614c-.614 3.067-2.148 5.215-4.296 6.749-2.147 1.534-4.909 2.454-8.283 2.454h-.307v-3.988h.307c1.84 0 3.374-.307 4.602-1.227s2.454-2.455 3.067-4.602Zm-7.976-19.941c3.988 0 7.056 1.227 9.51 3.988 2.455 2.454 3.682 6.136 3.682 10.738v1.534H133.76v-3.989h7.976q-.46-3.681-1.84-5.522c-1.534-1.84-3.375-2.761-5.83-2.761h-.306zm0 29.758c-3.988 0-7.056-1.227-9.51-3.681-2.455-2.761-3.682-6.136-3.682-11.045q0-6.903 3.681-11.044c2.455-2.454 5.523-3.988 9.51-3.988v3.988c-2.147 0-3.987.92-5.521 2.147-1.228 1.534-2.148 3.682-2.455 6.136h7.977v3.988h-8.283c.306 3.068 1.227 5.523 2.76 7.057s3.375 2.454 5.523 2.454z" style="fill:#fff;stroke-width:0"/><path d="m161.986 169.962 8.59-.307c0 1.228.307 2.455.92 3.068.92 1.227 2.148 1.841 3.989 1.841 1.227 0 2.147-.307 3.067-.92.614-.614.92-1.228.92-2.148 0-.614-.306-1.534-.92-1.84q-.92-.921-4.601-1.841c-3.989-.92-6.75-2.148-8.284-3.375q-2.76-2.301-2.761-5.522c0-1.534.614-3.068 1.534-4.295.614-1.227 2.148-2.455 3.682-3.068 1.84-.92 4.295-1.227 7.056-1.227 3.681 0 6.442.613 8.59 2.147 1.84 1.227 3.068 3.375 3.375 6.443l-8.284.613c-.307-1.534-.92-2.454-1.534-3.068-.613-.306-1.534-.613-3.068-.613-.92 0-1.534 0-2.147.613-.614.307-.92.92-.92 1.534 0 .307.306.92.613 1.228.613.306 1.534.613 3.068.92q5.983 1.38 8.283 2.761c1.84.92 3.068 1.84 3.682 3.068.92 1.227 1.227 2.761 1.227 4.295 0 1.84-.614 3.682-1.534 5.215s-2.454 2.762-4.295 3.375c-1.84.92-3.988 1.227-6.75 1.227-4.908 0-8.283-.92-10.43-2.76-1.841-1.841-2.762-4.296-3.068-7.364ZM191.744 150.328h27.918v7.363h-9.51v22.395h-9.204v-22.395h-9.204zM238.07 150.328c6.75 0 12.578 4.601 14.419 10.737h-7.67c-1.534-2.147-3.988-3.681-6.75-3.681-4.294 0-7.976 3.681-7.976 7.976s3.682 7.67 7.977 7.67c2.76 0 5.215-1.534 6.75-3.681h7.669c-1.84 6.135-7.67 10.737-14.42 10.737-8.283 0-15.032-6.749-15.032-14.726 0-8.283 6.75-15.032 15.033-15.032" style="fill:#004098;stroke-width:0"/><path d="M195.426 308.632v-2.761c2.761-.307 5.215-3.375 3.375-6.136-.92-1.227-1.841-.307-1.841.92 0 .92-.92 1.841-.92 1.841s-.307 0-.614-.307v-6.442c.92 0 2.147 0 3.988.613 4.909 2.148 4.295 11.045-3.374 12.272zm0-13.499v-4.295c1.534-.92 2.454-1.227 2.454-1.227 2.761-2.761 10.124-2.455 10.431 1.84 0 1.841 0 3.682-2.761 3.989-3.068.307-2.147-2.455-2.147-2.455h1.227s.613-.92.307-1.84c-.307-.614-1.534-.614-4.602 0-2.148.613-3.989 2.76-4.91 3.988m0-4.295v4.295c-.307.614-.614.92-.614.92s.307 0 .614-.306v6.442c-.614 0-1.227-.613-1.534-1.227 0-1.534-1.534-.92-1.534-.92s-.92.92-.614 2.454c0 1.84.614 2.454 2.148 3.068.613.307.92.307 1.534.307v2.76c-3.988.614-6.136-.613-7.363-2.76v-7.057c1.227-3.681 4.909-6.442 7.363-7.976m-7.363-1.227v-.307h.614s-.307 0-.614.307m0-.307v.307c-.614.307-2.148.92-3.068 1.534-1.534 1.227-2.761 4.295-2.761 4.295l-1.227-3.375-5.523-.307-2.454 3.375s2.455 0 4.295.614c2.148.613 3.068 2.76 3.068 5.215 0 2.148-.613 4.295-3.068 6.75-2.147 2.147-7.976 2.76-10.737.92-3.068-1.534-2.761-6.136-1.534-7.977 1.227-2.147 3.681-1.534 4.908-1.227 1.228.614.614 2.454.307 3.681-.307.92-1.227.92-1.227.92s-.614-2.147-.92-.92c-.307 1.534 1.227 2.455 2.76 2.762 1.841.306 3.682-.614 4.296-2.148.613-1.84.613-3.681-.92-5.215s-7.057-.614-7.057-.614l6.75-9.204zm0 9.51c-.614 2.761-.614 5.216 0 7.057zm-34.974 7.057v-11.045h.613c.92 0 1.534.614 1.534 1.534 0 .614.614.614.92.307.921-.614 1.535-3.682-.306-4.909q-1.38-.92-2.761-.92v-3.068c3.681 0 7.363 2.454 7.67 7.056 0 3.988-3.375 8.59-7.67 11.045m-11.045-18.408-1.534.307v1.84zm11.045.307v3.068c-1.841-.307-3.682.92-3.989 2.76-.306 2.455 1.534 2.762 1.228 2.762 0 0 1.534-1.227 2.76-1.534v11.044c-1.226.92-2.76 1.228-3.988 1.841-4.601 1.534-6.749 1.227-8.59.307v-4.602c.614-.307.92-.307 1.534 0 1.534 0 .307.92.614 2.148.307 1.84 4.295.306 6.442-1.228 1.841-1.534 2.762-3.681 2.762-3.681s-4.91-1.534-5.523-3.988c-.92-2.761 0-7.67 4.602-8.59.614-.307 1.534-.307 2.148-.307Zm-12.579 0-8.897 1.227 2.148 2.761-11.658 17.18h5.829l12.578-19.327zm0 15.646v4.602l-.92-.92c-.614-1.228-.307-2.455.307-3.375.307-.307.613-.307.613-.307M33.747 177.018c0-.306.307-.306.307-.613 1.534-1.227.92-2.761 3.375-2.454 2.147.306 7.056.306 8.283-1.228 1.534-1.534 3.681-7.056 3.375-10.124s-1.228-4.602-3.068-3.988c-1.841.307-2.148 4.909-2.148 7.056 0 1.84-.92 4.295-2.76 4.295-.615 0-1.228 0-1.535-.307-.92-.613-.614-1.84-.92-3.374 0-2.148.306-3.989-.92-4.295-.614-.307-2.455-.614-3.989-1.534v4.908q.307 0 .614.307c0 .307-.307.614-.307.614h-.307zm-3.375 1.841h.307c2.148.307 2.148-.92 3.068-1.84V166.28c-.614 0-.307-.614-.614-.307v-.614h.614v-4.908c-.92-.307-1.534-.92-2.147-1.228l-1.228-1.227v6.136l.307-.307c.614-.307.307 0 .614.307 0 .307-.614 1.227-.92 1.534zm-7.363-9.204c.614 0 1.227-.306 2.148 0 1.227 1.228 3.068 2.148 2.76 3.068-.306 1.228-.306 1.841-1.533 1.841-.92.307-2.148 0-3.375 0v1.534c2.148.92 5.522 2.454 7.363 2.761v-13.192h-.613c0-.307-.307-.307-.307-.613s-.307-.307.307-.92h.613v-6.137c-.92-.92-1.227-1.534-1.84-3.068-.92-1.84-1.228-3.374-2.148-3.374-.307 0-1.84.307-3.375 1.227v3.068c.614 0 .92.307 1.841.92 1.534.92 3.375 3.068 3.068 4.602-.614 1.534-.92 1.227-2.761.92-.614-.306-1.227-.306-2.148-.613zm-5.522-1.534s2.454 2.762 3.682 2.148c.613 0 1.227-.307 1.84-.614v-7.976c-1.534-.614-3.068-1.227-3.374-1.534l-1.228-1.227s-.306-1.534.614-1.841c1.227-.614.92-.92 2.147-1.227.92 0 1.534-.307 1.841 0v-3.068c-.613.307-1.534.92-2.454 1.534-2.148 1.534-4.602 2.147-4.602 2.147s-1.84-.613-3.681-.92c-2.148 0-3.375-.614-5.523.613s-2.76 2.455-2.76 2.455 3.067-.614 3.988 0c.92.307 3.374 2.147 4.908 3.374 1.227 1.228 2.761 3.068 3.375 4.295.92 1.534 1.227 1.841 1.227 1.841Zm5.522 6.443h-.613c-.92 0-.92.614-.92.614s.613.306 1.533.92zM61.358 100.934c1.534.614 3.375 1.534 3.375 1.534s0-.92.92-1.534 3.068-3.681 3.989-6.442c.92-2.148.306-4.91-.614-6.136-.92-.92-3.682-2.454-4.909-3.068-1.227-.307-1.84-1.534-1.534-2.454 0-.92.614-2.455.92-3.068s-.613-1.841-.613-1.841-.307.614-1.534.92V89.89c.307.307.614.307.92.307.614.92 1.228 1.227 1.535 1.84.613.307 1.227 1.228 1.533 2.455 0 1.227-.92 1.84-1.84 2.76-.92 0-1.534.308-2.148.308zm-23.93-19.02s.92 2.76.92 3.374c.308.614.308.92.308.92s1.534-.613 2.454-1.227q.92-1.227 1.534-.92c.614.613 3.068 2.147 4.602 3.374 2.147.92 2.761 2.148 4.295 3.375 1.227.92 3.375 1.227 3.375 1.227l-2.761 5.83s-.307 2.147.306 2.454c.307.613 1.841.613 3.375 0 .92-.307 2.761-.307 3.375-.307.307 0 1.227.613 2.147.92V97.56c-.613.306-.92.306-1.534.306-.92 0-1.534-.306-1.84-.613-.614 0-.92-1.227-.92-1.227s.306-1.841.613-3.068c.613-.92.92-1.841 1.534-2.148.307-.613.613-1.534.92-1.227s.92.307 1.227.307V78.845c-1.227.614-2.454 1.534-3.068 2.148s-1.227 2.147-1.84 3.068c-.614 1.227-1.227 2.76-2.148 2.76-.613.308-2.147-.306-3.068-1.226s-3.374-3.989-4.295-4.91-2.454-1.84-3.681-2.76c-1.84-.307-3.068.92-3.989 1.534-.92.307-1.84 2.454-1.84 2.454ZM121.183 40.496v-3.988c.613-.307.92-.614.92-.614.614-.306.92-1.227.614-1.84q0-.614-.92-.92s-.308 0-.614-.307V17.18c.613.92 1.533 2.761 2.147 3.375.307.92 1.227 1.534 1.84 2.761.921.92 2.455 1.84 3.069 2.761q1.227 1.227 1.534 2.148c.306.92.306 1.534 0 2.454s-.614 2.454-.614 3.375c0 1.227.92 2.454.92 2.76s1.228 3.069 1.228 3.069v.613c-.307.92-.614 1.534-.614 2.455-.307.92.307 2.454.614 3.374 0 1.227 1.227 4.909 1.227 5.216.307.306.613 1.534.307 1.534s-.307-.307-.92-.614c-.921-.614-1.841-2.147-2.762-3.681-1.227-1.228-2.454-4.296-3.068-5.523-.307-.92-1.534-2.76-2.147-3.374-.307-.614-1.534 0-2.761.613Zm0-23.316v15.647c-.614 0-.92.613-1.228 1.227 0 0-.306 1.534.307 2.147.307.307.614.307.92.307v3.988c-.306.307-.92.307-1.227.307l-.613.614V30.066h.307c1.84-.614.92-3.068-.307-2.455V14.726a3.1 3.1 0 0 0 1.227.307s.307.613.307 1.227c0 .307.306.614.306.92Zm-6.136 37.122c.613-.307.307-.614.307-.92.306-.307.613-.92.306-1.228l-.613-1.84zm4.295-39.576v12.885c-.92 0-1.227.614-1.227.614s-.307.92.306 1.534c.307 0 .614.307.92.307v11.35c-.613.308-1.226.308-2.147-.92-1.534-1.84 0-2.454 0-3.374 0-.614.92-3.068.614-3.682-.307-.92-1.84 0-2.454-.92 0-.307-.307-.614-.307-.92v-6.75h.307c.613-.614 3.374-1.534 3.374-1.534l.614-1.534-2.761-7.056s.307-.92 1.227-.614c.307.307.92.307 1.534.614Zm-16.567 9.204c-.307 1.84-.307 3.681 0 5.215.614 1.227.92 2.454 1.534 3.375.307.92 0 1.534 0 1.534s-1.534 1.534-2.147 2.454c-.92.614-2.455 2.761-3.068 4.295-.307 2.148 0 3.682.92 3.375 1.227-.307 1.534-.92 1.84-1.84.614-.921 1.842-1.842 2.455-.921.307.613-.613 3.681-.613 4.602s-.307 3.681 0 4.602c.613.613 1.534 1.84 1.534 2.147.306.307.613 1.227.92.614.307 0 .92-.307.92-.307s.614-1.227.92-2.148.921-1.534.921-2.147c.307-.614.92-.92 1.534-1.227.614 0 1.227.92 1.534 1.534 0 .306.92 2.147.92 2.454s-.306.307-.613.614-.307.613-.307.92h-.613s.613.307 1.227 1.227c.613.307 1.534.92 2.147.307.307 0 .307-.307.307-.307v-3.988c-.307-.92-.92-1.84-1.227-2.148-.307-1.227-.614-2.147-1.227-3.068-.614-1.227-.92-2.147-.92-2.147s.92-3.375 1.226-4.909.307-2.147.307-3.374c0-.614.307-1.534 0-2.148s-.307-1.227-.307-1.227-.613.307-.613 1.227c-.307.92-.614 3.068-.92 3.988 0 .614-.307 1.841-.614 2.148s-1.227.613-1.84.307c-.614 0-.921-.307-.921-.307s-.307-.614 0-1.227c0-.614 0-.92-.307-1.228 0-.613-.614-2.147-1.227-2.454-.307 0-.614-.92-.614-1.227s-1.227-2.761-.92-3.375c0-.92.92-3.681 1.534-4.602s.613-2.454.307-3.374c-.307-2.761-1.841-2.148-3.068-.614-.614.92-.92 2.761-.92 3.375Zm12.272.92v6.75c-.307-.92-.307-2.148-.307-2.455 0-.92-.614-2.147-.614-2.76 0-.921.307-1.228.92-1.535M214.754 58.29c.307 0 .613.307.92.307.614.307 4.295 1.534 5.83 1.84s2.76.614 3.374.308c.92 0 2.147-.307 1.227-1.228-.92-.306-1.84-1.227-2.761-1.84-1.227-.92-3.375-3.682-4.295-5.216-.92-1.227-1.84-2.76-1.84-2.76s.306-.614.613-.921c.613 0 1.534-2.454 1.84-3.988.614-1.228.92-2.762 1.228-3.375 0-.92 0-1.534-.307-1.84 0-.614-.307-.308-.92-.614-.307 0-1.535.306-2.148.306-.307 0-.614-.306-.614-.613v-.92c.307-.307 1.228-.614 2.455-.921 1.534-.307 3.374 0 4.295-.92.92-1.228 1.534-2.455 2.147-3.375.307-.614.307-1.227.307-1.534s-.307-.614-.307-.614-.613 0-.92.307c-.307.614-2.148 1.227-2.454 1.534-.614.614-1.534.92-2.148.614s-.92-.307-1.227-.614c0-.307.613-2.147.92-3.068.307-1.227.614-1.84.614-2.761 0-1.227-.307-1.534-.614-1.84s-.92 0-.92 0-.614.92-.92 1.533-.921 2.148-1.228 3.375c-.307.614-.92 2.761-1.227 3.375 0 .307-.307.307-.92.307v10.124h.613c.92 0 1.227-.307 1.227.306-.306.614-.306 1.228-.613 1.841-.307.307-.614.92-1.227 1.227zm-5.216-5.522c1.228 0 1.841 0 2.148.307.613.307.92.307.92.92s.307 1.228.614 2.455c.307.92.92 1.534 1.534 1.84V46.632h-.614q-.92-.46-.92-.92c-.307-.307 0-.92.307-1.227 0-.307.306-.614.306-.614s.614-.307.92-.614V33.133h-.92c-.613.307-1.534 0-2.76 0-.614.307-.921.307-1.535.307v2.454q.307 0 .614.307c.307.614.307 0 .614.614 0 .307.613.307.613.613.307 0 .307.307.307.614s-.614 1.227-.92 1.534-.92.307-1.228 0zm0-23.93c.307-.306.307-.613.614-1.227 0-.307 0-.613-.614-1.227zm-1.84-4.295s-1.534.614-2.148 1.841c-.92 1.227-1.84 3.988-2.454 4.602-.307.307-1.227.307-1.84 0-.921-.307-2.455-.614-2.455 0s.613.614.92 1.534.92 3.681-.613 5.829c-1.841 2.147-2.148 3.375-3.682 3.988-1.227.614-2.454.307-3.068.614-.613 0-.92-.307-1.227.307s-.614 3.068.614 4.295c.92.92 1.534.307 2.147.307.92 0 1.84-.307 1.84-.307s.921.92 1.535 1.227c.613.614.92.614 1.534.307s1.227-2.455 1.534-3.375c.307-.614.613-2.147.613-2.147s.92-.92 2.148-1.534c.613-.614.307-.307 1.534-1.228 1.227-.613 1.84-1.227 1.84-1.227l-.613 2.761s-.92.92 0 1.84c.92.615 1.84 1.842 2.454 2.455.92.92 1.227 1.534.307 2.148-.613.306-2.454 0-2.761-.307-.307-.614-.92-1.534-1.227-2.454s-.307-2.148-.307-2.762c.307-.613 0-.92 0-.92s-1.227.614-1.227.92c-.307.614-1.534 1.841-1.84 3.068-.615 1.534-1.228 3.068-.921 3.682.613.613 3.374 1.84 4.602 2.147s3.374.92 4.601.614V39.269c-.306-.307-1.534-.307-1.84-.307-.307-.306 0-.92.307-1.227.306-.613 0-.613.613-.92s.92-.92.92-.92V33.44c-.92.307-1.533.614-2.147.92-.614 1.228-2.454 2.148-2.454 2.148s-.92 0-.92-.614.92-1.84 1.84-2.454 2.148-1.534 2.761-2.761q.92-.92.92-1.84v-2.455c0-.307-.306-.614-.306-.92-1.227-1.228-1.534-.92-1.534-.92ZM274.885 84.674c.307.307.613.614.613.92.614.614 2.762.921 3.989.308 1.227-.92 6.135-4.91 7.056-5.523s1.534-1.534 3.681-1.534c1.841 0 3.068.307 3.068 1.534 0 .92-.306 3.682-.613 4.295s0 .92-.307 1.228c0 .306-2.454 1.84-3.988 2.454-1.228.614-3.068 2.454-3.682 3.068s0 1.227.92 1.227c.92.307 2.148 0 3.989.92 1.534 1.228 2.454 3.375 2.76 4.602.614 1.227.308 2.148-1.226 2.148s-3.068-.92-3.989-1.84c-.613-.921-2.454-2.455-3.374-3.069-1.228-.307-2.761-.92-3.375-.92-.307 0-.614 0-1.534.92-.92.614-2.148 1.534-3.988 2.148zm0 28.532v-12.272c.92.92 1.84 1.841 2.147 2.761.614 1.228 1.534 3.375 1.227 4.91s-2.147 3.987-2.76 4.294c0 .307-.307.307-.614.307Zm-2.761-32.213s1.84 2.147 2.76 3.681V97.56c-.613.307-1.533.307-2.454.614-2.76 0-6.135-1.227-7.976-2.454-2.148-1.227-3.682-2.761-3.682-3.375s1.228-2.147 1.534-2.454c.614-.307 1.534-.307 3.068-.307 1.534.307 2.148.614 2.761.307.614 0 .92.307.92-.307 0-.92-.306-2.147-.92-3.068s-1.227-2.761-1.534-3.988c0-1.227.92-1.84 2.455-2.148s3.068.614 3.068.614Zm2.76 19.941v12.272c-.306-.307-.613-.614-.92-1.227-.613-.614-2.147-1.534-1.84-2.455v-3.988c.306-1.227 0-1.84 0-1.84s-.614-1.535-.307-2.148c0-.92 0-1.534.307-1.534.306-.307 1.227-.614 1.227-.614zM314.154 157.997s3.682-1.227 4.909-1.227c1.227-.307 3.068-1.534 3.068-2.76s-1.228-2.455-2.148-2.762c-1.534-.307-3.068.307-4.295 1.534-1.227.92-.92 1.84-1.84 2.454s-.921.614-.921 1.227 1.227 1.534 1.227 1.534ZM288.69 170.27v-4.295c.614 0 1.227.307 1.534-.614.614-1.227.614-2.147-.307-2.76-.613-.614-1.227-1.535-1.227-2.148v-4.602c.614-.92 1.534-2.454 2.455-2.454.92-.307 1.84.613 1.84.613s-.613 2.148-.307 3.375c0 1.84 0 3.375.614 4.295.614.613 2.761 2.454 3.682 3.375.92.613 2.454 1.227 3.988.92s1.227-1.84.614-2.147c-.92-.614-1.534-1.228-2.148-1.841l-2.454-1.227c-.614 0-.614-.92-.307-1.228.307-.613 1.534-.92 2.761-.92 1.534.307 2.761.92 3.682 2.147 1.227.92 2.76 4.602 3.374 5.216.307.307 1.227.307 1.534-.307 0-.92 0-1.84-1.227-3.375q-.92-1.227-1.534-2.454c-.614-1.227-1.227-.92-2.147-2.761a24 24 0 0 1-.92-2.761s-1.535-.614-2.455-.92-1.227-1.841-1.227-2.762c-.307-.613.92-1.84 2.454-1.84 1.84 0 3.375.306 4.602.613 1.227 0 2.454 1.227 3.068 2.455.613 1.84 2.147 5.829 2.76 7.67.614 1.533 1.228 3.988 1.228 6.442.307 2.147 0 2.761-.614 3.681-.306 1.228-1.227 2.148-1.84 2.762-.614.306-2.455-.307-3.068-1.228-.614-1.227-2.148-1.227-3.068-1.534-.92 0-2.148.614-3.068 0-.92-.306-1.534-.92-2.761-1.227s-2.761 0-3.375.307c-.307.307 0 1.227.92 2.147.921.614 1.228 1.228 1.228 2.148q.307.92-.307 1.534c-.614.92-1.227 1.84-2.454 3.068-.614.92-.92.613-1.227 0-.614-.307-.92-2.148-1.228-3.068 0-.92 0-1.84-.613-2.761-.614-1.227-1.534-1.227-2.455-1.534Zm33.134-10.124s-1.841-.307-2.761-.307c-.614-.307-2.148.307-2.148 1.227 0 .614 0 1.841.307 2.148.307.613.92.613 1.227.92.307.614.92 0 .92 0s.92-.307 1.228-.92c.613-.92.613-1.534.92-2.148s.307-.92.307-.92Zm4.908 11.044s-2.454-.92-3.068-1.227c-.92 0-3.067-1.534-4.601-1.84-.92-.614-2.455-.92-2.455-.92s0 1.226.614 2.147c.307.613.92.92.92.92s.614 3.375.92 3.988c0 .307 1.228 2.761 2.148 3.068 1.227 0 2.454-.307 3.375-1.84.92-1.228 1.534-1.228 1.84-2.148s.307-2.147.307-2.147Zm-38.042-15.34v4.603h-.307s-.613 0-1.227.613c-.613.307-.613 1.228-.613 1.841.306.92 0 1.227.613 2.454.614.92.92.614 1.227.614h.307v4.295h-.613c-1.228 0-2.455 0-3.989-.614s-.92-1.534-1.84-3.681c-.307-2.454-.614-4.295-.307-4.909.307-.92 2.454-1.534 3.681-2.147 1.228-.92 1.534-2.148 2.148-2.455.307 0 .613-.306.92-.613" style="fill:#fff;stroke-width:0"/></svg>